<?xml version="1.0" encoding="UTF-8" standalone="no"?>
<!-- Created with Inkscape (http://www.inkscape.org/) -->

<svg
   xmlns:dc="http://purl.org/dc/elements/1.1/"
   xmlns:cc="http://creativecommons.org/ns#"
   xmlns:rdf="http://www.w3.org/1999/02/22-rdf-syntax-ns#"
   xmlns:svg="http://www.w3.org/2000/svg"
   xmlns="http://www.w3.org/2000/svg"
   xmlns:sodipodi="http://sodipodi.sourceforge.net/DTD/sodipodi-0.dtd"
   xmlns:inkscape="http://www.inkscape.org/namespaces/inkscape"
   id="svg2"
   version="1.1"
   inkscape:version="0.48.3.1 r9886"
   width="75"
   height="125"
   xml:space="preserve"
   sodipodi:docname="imasys.ai"><metadata
     id="metadata8"><rdf:RDF><cc:Work
         rdf:about=""><dc:format>image/svg+xml</dc:format><dc:type
           rdf:resource="http://purl.org/dc/dcmitype/StillImage" /><dc:title></dc:title></cc:Work></rdf:RDF></metadata><defs
     id="defs6"><clipPath
       clipPathUnits="userSpaceOnUse"
       id="clipPath20"><path
         d="M 0,100 60,100 60,0 0,0 0,100 z"
         id="path22" /></clipPath></defs><sodipodi:namedview
     pagecolor="#ffffff"
     bordercolor="#666666"
     borderopacity="1"
     objecttolerance="10"
     gridtolerance="10"
     guidetolerance="10"
     inkscape:pageopacity="0"
     inkscape:pageshadow="2"
     inkscape:window-width="838"
     inkscape:window-height="994"
     id="namedview4"
     showgrid="false"
     inkscape:zoom="1.888"
     inkscape:cx="38.559322"
     inkscape:cy="62.5"
     inkscape:window-x="1890"
     inkscape:window-y="27"
     inkscape:window-maximized="0"
     inkscape:current-layer="g10" /><g
     id="g10"
     inkscape:groupmode="layer"
     inkscape:label="imasys"
     transform="matrix(1.25,0,0,-1.25,0,125)"><path
       d="M 0,0 60,0 60,100 0,100 0,0 z"
       style="fill:#000000;fill-opacity:1;fill-rule:nonzero;stroke:none"
       id="path12" /><path
       d="M 55,14 5,14 5,92 55,92 55,14 z"
       style="fill:#ffffff;fill-opacity:1;fill-rule:nonzero;stroke:none"
       id="path14" /><g
       id="g16"><g
         id="g18"
         clip-path="url(#clipPath20)"><g
           id="g24"
           transform="translate(34,7)"><path
             d="m 0,0 c 0,2.209 -1.791,4 -4,4 -2.209,0 -4,-1.791 -4,-4 0,-2.209 1.791,-4 4,-4 2.209,0 4,1.791 4,4"
             style="fill:#ffffff;fill-opacity:1;fill-rule:nonzero;stroke:none"
             id="path26" /></g><g
           id="g28"
           transform="translate(11.5185,55.6472)"><path
             d="m 0,0 c 4.378,5.125 10.759,8.353 17.863,8.353 7.254,0 13.753,-3.366 18.137,-8.68"
             style="fill:none;stroke:#000000;stroke-opacity:1;stroke-width:4;stroke-linecap:round;stroke-linejoin:miter;stroke-miterlimit:10;stroke-dasharray:none"
             id="path30" /></g><g
           id="g32"
           transform="translate(16.4203,50.0786)"><path
             d="m 0,0 c 3.191,3.482 7.815,5.672 12.96,5.672 5.298,0 10.045,-2.323 13.242,-5.988"
             style="fill:none;stroke:#000000;stroke-opacity:1;stroke-width:4;stroke-linecap:round;stroke-linejoin:miter;stroke-miterlimit:10;stroke-dasharray:none"
             id="path34" /></g><g
           id="g36"
           transform="translate(21.3694,44.4561)"><path
             d="m 0,0 c 2.193,2.078 4.914,3.309 7.862,3.309 3.158,0 6.056,-1.412 8.323,-3.765"
             style="fill:none;stroke:#000000;stroke-opacity:1;stroke-width:4;stroke-linecap:round;stroke-linejoin:miter;stroke-miterlimit:10;stroke-dasharray:none"
             id="path38" /></g><g
           id="g40"
           transform="translate(20,96)"><path
             d="M 0,0 20,0"
             style="fill:none;stroke:#ffffff;stroke-opacity:1;stroke-width:2;stroke-linecap:round;stroke-linejoin:miter;stroke-miterlimit:10;stroke-dasharray:none"
             id="path42" /></g></g></g></g></svg>